<?xml version="1.0" standalone="no"?><svg xmlns="http://www.w3.org/2000/svg" viewBox="0 0 1440 320"><path fill="#f78d18" fill-opacity="0.5" d="M0,288L13.3,261.3C26.7,235,53,181,80,138.7C106.7,96,133,64,160,69.3C186.7,75,213,117,240,117.3C266.7,117,293,75,320,74.7C346.7,75,373,117,400,149.3C426.7,181,453,203,480,202.7C506.7,203,533,181,560,186.7C586.7,192,613,224,640,202.7C666.7,181,693,107,720,96C746.7,85,773,139,800,176C826.7,213,853,235,880,208C906.7,181,933,107,960,74.7C986.7,43,1013,53,1040,101.3C1066.7,149,1093,235,1120,272C1146.7,309,1173,299,1200,282.7C1226.7,267,1253,245,1280,229.3C1306.7,213,1333,203,1360,197.3C1386.7,192,1413,192,1427,192L1440,192L1440,320L1426.7,320C1413.3,320,1387,320,1360,320C1333.3,320,1307,320,1280,320C1253.3,320,1227,320,1200,320C1173.3,320,1147,320,1120,320C1093.3,320,1067,320,1040,320C1013.3,320,987,320,960,320C933.3,320,907,320,880,320C853.3,320,827,320,800,320C773.3,320,747,320,720,320C693.3,320,667,320,640,320C613.3,320,587,320,560,320C533.3,320,507,320,480,320C453.3,320,427,320,400,320C373.3,320,347,320,320,320C293.3,320,267,320,240,320C213.3,320,187,320,160,320C133.3,320,107,320,80,320C53.3,320,27,320,13,320L0,320Z"></path></svg>