<?xml version="1.0" standalone="no"?><svg xmlns="http://www.w3.org/2000/svg" viewBox="0 0 1440 320"><path fill="#00cba9" fill-opacity="0.5" d="M0,224L13.3,208C26.7,192,53,160,80,160C106.7,160,133,192,160,181.3C186.7,171,213,117,240,112C266.7,107,293,149,320,192C346.7,235,373,277,400,261.3C426.7,245,453,171,480,165.3C506.7,160,533,224,560,208C586.7,192,613,96,640,96C666.7,96,693,192,720,197.3C746.7,203,773,117,800,106.7C826.7,96,853,160,880,181.3C906.7,203,933,181,960,192C986.7,203,1013,245,1040,266.7C1066.7,288,1093,288,1120,261.3C1146.7,235,1173,181,1200,144C1226.7,107,1253,85,1280,90.7C1306.7,96,1333,128,1360,154.7C1386.7,181,1413,203,1427,213.3L1440,224L1440,320L1426.7,320C1413.3,320,1387,320,1360,320C1333.3,320,1307,320,1280,320C1253.3,320,1227,320,1200,320C1173.3,320,1147,320,1120,320C1093.3,320,1067,320,1040,320C1013.3,320,987,320,960,320C933.3,320,907,320,880,320C853.3,320,827,320,800,320C773.3,320,747,320,720,320C693.3,320,667,320,640,320C613.3,320,587,320,560,320C533.3,320,507,320,480,320C453.3,320,427,320,400,320C373.3,320,347,320,320,320C293.3,320,267,320,240,320C213.3,320,187,320,160,320C133.3,320,107,320,80,320C53.3,320,27,320,13,320L0,320Z"></path></svg>