<?xml version="1.0" standalone="no"?><svg xmlns="http://www.w3.org/2000/svg" viewBox="0 0 1440 320"><path fill="#4c469c" fill-opacity="0.5" d="M0,128L13.3,122.7C26.7,117,53,107,80,85.3C106.7,64,133,32,160,53.3C186.7,75,213,149,240,192C266.7,235,293,245,320,218.7C346.7,192,373,128,400,85.3C426.7,43,453,21,480,26.7C506.7,32,533,64,560,85.3C586.7,107,613,117,640,112C666.7,107,693,85,720,74.7C746.7,64,773,64,800,96C826.7,128,853,192,880,213.3C906.7,235,933,213,960,202.7C986.7,192,1013,192,1040,192C1066.7,192,1093,192,1120,181.3C1146.7,171,1173,149,1200,138.7C1226.7,128,1253,128,1280,144C1306.7,160,1333,192,1360,208C1386.7,224,1413,224,1427,224L1440,224L1440,320L1426.7,320C1413.3,320,1387,320,1360,320C1333.3,320,1307,320,1280,320C1253.3,320,1227,320,1200,320C1173.3,320,1147,320,1120,320C1093.3,320,1067,320,1040,320C1013.3,320,987,320,960,320C933.3,320,907,320,880,320C853.3,320,827,320,800,320C773.3,320,747,320,720,320C693.3,320,667,320,640,320C613.3,320,587,320,560,320C533.3,320,507,320,480,320C453.3,320,427,320,400,320C373.3,320,347,320,320,320C293.3,320,267,320,240,320C213.3,320,187,320,160,320C133.3,320,107,320,80,320C53.3,320,27,320,13,320L0,320Z"></path></svg>